<mxfile host="app.diagrams.net" agent="Mozilla/5.0 (Windows NT 10.0; Win64; x64) AppleWebKit/537.36 (KHTML, like Gecko) Chrome/139.0.0.0 Safari/537.36 Edg/139.0.0.0" version="28.1.0">
  <diagram name="Page-1" id="pDuGo_FIUqFteQ6fS-C0">
    <mxGraphModel dx="925" dy="551" grid="1" gridSize="10" guides="1" tooltips="1" connect="1" arrows="1" fold="1" page="1" pageScale="1" pageWidth="850" pageHeight="1100" math="0" shadow="0">
      <root>
        <mxCell id="0" />
        <mxCell id="1" parent="0" />
        <mxCell id="xEVY77_lLVKa4HjOwzNd-2" style="edgeStyle=orthogonalEdgeStyle;rounded=0;orthogonalLoop=1;jettySize=auto;html=1;" edge="1" parent="1" source="de43SDdeIP7dPrQkj7_o-1" target="xEVY77_lLVKa4HjOwzNd-1">
          <mxGeometry relative="1" as="geometry" />
        </mxCell>
        <mxCell id="xEVY77_lLVKa4HjOwzNd-6" style="edgeStyle=orthogonalEdgeStyle;rounded=0;orthogonalLoop=1;jettySize=auto;html=1;" edge="1" parent="1" source="de43SDdeIP7dPrQkj7_o-1" target="xEVY77_lLVKa4HjOwzNd-5">
          <mxGeometry relative="1" as="geometry">
            <Array as="points">
              <mxPoint x="360" y="287" />
              <mxPoint x="360" y="150" />
            </Array>
          </mxGeometry>
        </mxCell>
        <mxCell id="de43SDdeIP7dPrQkj7_o-1" value="API GW&lt;div&gt;Regional&lt;/div&gt;" style="outlineConnect=0;dashed=0;verticalLabelPosition=bottom;verticalAlign=top;align=center;html=1;shape=mxgraph.aws3.api_gateway;fillColor=#D9A741;gradientColor=none;" parent="1" vertex="1">
          <mxGeometry x="200" y="240" width="76.5" height="93" as="geometry" />
        </mxCell>
        <mxCell id="de43SDdeIP7dPrQkj7_o-2" value="" style="sketch=0;points=[[0,0,0],[0.25,0,0],[0.5,0,0],[0.75,0,0],[1,0,0],[0,1,0],[0.25,1,0],[0.5,1,0],[0.75,1,0],[1,1,0],[0,0.25,0],[0,0.5,0],[0,0.75,0],[1,0.25,0],[1,0.5,0],[1,0.75,0]];outlineConnect=0;fontColor=#232F3E;fillColor=#8C4FFF;strokeColor=#ffffff;dashed=0;verticalLabelPosition=bottom;verticalAlign=top;align=center;html=1;fontSize=12;fontStyle=0;aspect=fixed;shape=mxgraph.aws4.resourceIcon;resIcon=mxgraph.aws4.route_53;" parent="1" vertex="1">
          <mxGeometry x="198.5" y="70" width="78" height="78" as="geometry" />
        </mxCell>
        <mxCell id="de43SDdeIP7dPrQkj7_o-4" value="example.com" style="text;html=1;align=center;verticalAlign=middle;whiteSpace=wrap;rounded=0;fontStyle=1" parent="1" vertex="1">
          <mxGeometry x="110" y="200" width="90" height="30" as="geometry" />
        </mxCell>
        <mxCell id="de43SDdeIP7dPrQkj7_o-5" style="edgeStyle=orthogonalEdgeStyle;rounded=0;orthogonalLoop=1;jettySize=auto;html=1;entryX=0;entryY=0.5;entryDx=0;entryDy=0;entryPerimeter=0;" parent="1" source="de43SDdeIP7dPrQkj7_o-4" target="de43SDdeIP7dPrQkj7_o-2" edge="1">
          <mxGeometry relative="1" as="geometry" />
        </mxCell>
        <mxCell id="de43SDdeIP7dPrQkj7_o-6" value="A Record" style="edgeLabel;html=1;align=center;verticalAlign=middle;resizable=0;points=[];" parent="de43SDdeIP7dPrQkj7_o-5" vertex="1" connectable="0">
          <mxGeometry x="0.0558" y="3" relative="1" as="geometry">
            <mxPoint as="offset" />
          </mxGeometry>
        </mxCell>
        <mxCell id="de43SDdeIP7dPrQkj7_o-7" style="edgeStyle=orthogonalEdgeStyle;rounded=0;orthogonalLoop=1;jettySize=auto;html=1;entryX=0.5;entryY=0;entryDx=0;entryDy=0;entryPerimeter=0;" parent="1" source="de43SDdeIP7dPrQkj7_o-2" target="de43SDdeIP7dPrQkj7_o-1" edge="1">
          <mxGeometry relative="1" as="geometry" />
        </mxCell>
        <mxCell id="de43SDdeIP7dPrQkj7_o-9" style="edgeStyle=orthogonalEdgeStyle;rounded=0;orthogonalLoop=1;jettySize=auto;html=1;" parent="1" source="de43SDdeIP7dPrQkj7_o-8" target="de43SDdeIP7dPrQkj7_o-1" edge="1">
          <mxGeometry relative="1" as="geometry" />
        </mxCell>
        <mxCell id="de43SDdeIP7dPrQkj7_o-11" style="edgeStyle=orthogonalEdgeStyle;rounded=0;orthogonalLoop=1;jettySize=auto;html=1;entryX=0;entryY=0.5;entryDx=0;entryDy=0;dashed=1;" parent="1" source="de43SDdeIP7dPrQkj7_o-8" target="de43SDdeIP7dPrQkj7_o-4" edge="1">
          <mxGeometry relative="1" as="geometry" />
        </mxCell>
        <mxCell id="de43SDdeIP7dPrQkj7_o-8" value="" style="shape=actor;whiteSpace=wrap;html=1;" parent="1" vertex="1">
          <mxGeometry x="30" y="260" width="40" height="60" as="geometry" />
        </mxCell>
        <mxCell id="xEVY77_lLVKa4HjOwzNd-1" value="Backend Service" style="outlineConnect=0;dashed=0;verticalLabelPosition=bottom;verticalAlign=top;align=center;html=1;shape=mxgraph.aws3.lambda_function;fillColor=#F58534;gradientColor=none;" vertex="1" parent="1">
          <mxGeometry x="440" y="250.5" width="69" height="72" as="geometry" />
        </mxCell>
        <mxCell id="xEVY77_lLVKa4HjOwzNd-3" value="EC2" style="outlineConnect=0;dashed=0;verticalLabelPosition=bottom;verticalAlign=top;align=center;html=1;shape=mxgraph.aws3.ec2;fillColor=#F58534;gradientColor=none;" vertex="1" parent="1">
          <mxGeometry x="436.25" y="390" width="76.5" height="93" as="geometry" />
        </mxCell>
        <mxCell id="xEVY77_lLVKa4HjOwzNd-4" style="edgeStyle=orthogonalEdgeStyle;rounded=0;orthogonalLoop=1;jettySize=auto;html=1;entryX=0;entryY=0.5;entryDx=0;entryDy=0;entryPerimeter=0;" edge="1" parent="1" source="de43SDdeIP7dPrQkj7_o-1" target="xEVY77_lLVKa4HjOwzNd-3">
          <mxGeometry relative="1" as="geometry">
            <Array as="points">
              <mxPoint x="360" y="287" />
              <mxPoint x="360" y="437" />
            </Array>
          </mxGeometry>
        </mxCell>
        <mxCell id="xEVY77_lLVKa4HjOwzNd-5" value="ALB" style="sketch=0;outlineConnect=0;fontColor=#232F3E;gradientColor=none;fillColor=#8C4FFF;strokeColor=none;dashed=0;verticalLabelPosition=bottom;verticalAlign=top;align=center;html=1;fontSize=12;fontStyle=0;aspect=fixed;pointerEvents=1;shape=mxgraph.aws4.application_load_balancer;" vertex="1" parent="1">
          <mxGeometry x="425" y="100" width="78" height="78" as="geometry" />
        </mxCell>
        <mxCell id="xEVY77_lLVKa4HjOwzNd-7" value="EKS" style="sketch=0;points=[[0,0,0],[0.25,0,0],[0.5,0,0],[0.75,0,0],[1,0,0],[0,1,0],[0.25,1,0],[0.5,1,0],[0.75,1,0],[1,1,0],[0,0.25,0],[0,0.5,0],[0,0.75,0],[1,0.25,0],[1,0.5,0],[1,0.75,0]];outlineConnect=0;fontColor=#232F3E;fillColor=#ED7100;strokeColor=#ffffff;dashed=0;verticalLabelPosition=bottom;verticalAlign=top;align=center;html=1;fontSize=12;fontStyle=0;aspect=fixed;shape=mxgraph.aws4.resourceIcon;resIcon=mxgraph.aws4.eks;" vertex="1" parent="1">
          <mxGeometry x="640" y="20" width="78" height="78" as="geometry" />
        </mxCell>
        <mxCell id="xEVY77_lLVKa4HjOwzNd-8" style="edgeStyle=orthogonalEdgeStyle;rounded=0;orthogonalLoop=1;jettySize=auto;html=1;entryX=0;entryY=0.5;entryDx=0;entryDy=0;entryPerimeter=0;" edge="1" parent="1" source="xEVY77_lLVKa4HjOwzNd-5" target="xEVY77_lLVKa4HjOwzNd-7">
          <mxGeometry relative="1" as="geometry" />
        </mxCell>
      </root>
    </mxGraphModel>
  </diagram>
</mxfile>
